<?xml version="1.0" encoding="utf-8"?>
<svg xmlns="http://www.w3.org/2000/svg" viewBox="0 0 3192 3192" width="3192px" height="3192px">
  <rect fill="#155263" width="3192" height="3192"/>
  <path d="M 1035.5 1433.9 C 1015.66 1385.73 1015.66 1385.73 995.817 1334.73 L 919.314 1337.56 C 913.647 1331.89 907.98 1326.22 902.313 1320.57 L 1216.84 1006.03 L 1211.18 1037.2 C 1233.84 1048.53 1233.84 1048.53 1259.34 1062.7 L 1287.69 1037.2 C 1304.68 1040.03 1313.18 1040.03 1330.19 1040.03 L 1352.86 1071.2 C 1378.36 1062.7 1378.36 1062.7 1403.86 1054.21 L 1403.86 1031.54 L 1724.06 1323.39 L 1681.56 1317.71 C 1664.56 1348.89 1664.56 1348.89 1650.38 1377.22 L 1681.56 1411.23 C 1678.72 1431.06 1678.72 1442.4 1675.88 1465.06 L 1639.05 1493.41 C 1650.38 1524.57 1650.38 1524.57 1658.88 1558.57 L 1707.05 1561.4 C 1721.21 1578.41 1726.89 1586.92 1741.05 1601.08 L 1735.39 1649.25 C 1766.56 1666.25 1766.56 1666.25 1794.89 1680.43 L 1828.9 1649.25 C 1848.74 1652.08 1860.07 1652.08 1882.74 1654.91 L 1911.08 1691.76 C 1942.24 1680.43 1942.24 1680.43 1976.25 1671.91 L 1979.08 1623.74 C 1996.08 1609.57 2004.59 1603.91 2018.75 1589.75 L 2066.92 1595.42 C 2083.92 1564.23 2083.92 1564.23 2098.1 1535.91 L 2066.92 1501.9 C 2069.75 1482.07 2069.75 1470.73 2072.59 1448.06 L 2109.43 1419.72 C 2098.1 1388.57 2098.1 1388.57 2089.59 1354.55 L 2041.42 1351.72 C 2027.25 1334.73 2021.59 1326.22 2007.42 1312.04 L 2013.09 1263.88 C 1981.91 1246.88 1981.91 1246.88 1953.58 1232.71 L 1919.57 1263.88 C 1899.74 1261.05 1888.4 1261.05 1865.73 1258.2 L 1837.4 1221.38 C 1806.24 1232.71 1806.24 1232.71 1772.23 1241.22 L 1769.4 1286.55 L 1443.53 991.857 L 1474.7 997.53 C 1486.04 974.859 1486.04 974.859 1500.21 949.358 L 1474.7 921.021 C 1477.54 904.02 1477.54 895.519 1477.54 878.517 L 1508.7 855.848 C 1500.21 830.347 1500.21 830.347 1491.69 804.843 L 1454.86 804.843 C 1443.53 790.675 1437.86 785.009 1426.53 773.673 L 1432.2 734.003 C 1409.53 722.669 1409.53 722.669 1384.02 708.501 L 1355.69 734.003 C 1338.69 731.17 1330.19 731.17 1313.18 731.17 L 1290.51 700 C 1265.02 708.501 1265.02 708.501 1239.51 717.002 L 1239.51 753.839 C 1225.35 765.173 1219.67 770.841 1208.34 782.174 L 1171.5 776.508 C 1160.18 799.177 1160.18 799.177 1146 824.679 L 1171.5 853.014 C 1168.67 870.017 1168.67 878.517 1168.67 895.519 L 1137.51 918.188 C 1146 943.69 1146 943.69 1154.5 969.196 L 1177.17 969.196 L 862.643 1280.88 C 862.643 1280.88 859.809 1278.05 859.809 1278.05 L 862.643 1201.54 C 814.471 1181.71 814.471 1181.71 763.467 1161.87 L 712.462 1218.54 C 678.459 1218.54 661.457 1218.54 627.453 1218.54 L 576.449 1161.87 C 528.278 1181.71 528.278 1181.71 477.273 1201.54 L 480.107 1278.05 C 457.438 1300.71 443.269 1314.88 420.601 1337.56 L 344.095 1334.73 C 327.092 1382.89 327.092 1382.89 307.257 1433.9 L 363.929 1484.9 C 363.929 1518.9 363.929 1535.91 363.929 1569.9 L 307.257 1620.91 C 327.092 1669.08 327.092 1669.08 349.761 1717.25 L 426.269 1714.42 C 448.937 1737.09 463.105 1751.27 485.775 1773.92 L 482.94 1850.44 C 531.112 1870.27 531.112 1870.27 582.116 1890.11 L 633.121 1833.44 C 667.124 1833.44 684.127 1833.44 718.129 1833.44 L 769.134 1890.11 C 817.305 1870.27 817.305 1870.27 868.309 1850.44 L 865.477 1773.92 C 888.144 1751.27 902.313 1737.09 924.982 1714.42 L 1001.49 1717.25 C 1021.33 1669.08 1021.33 1669.08 1041.16 1618.08 L 984.492 1567.07 C 984.492 1533.08 984.492 1516.07 984.492 1482.07 L 1035.5 1433.9 Z M 1885.57 1323.39 C 1962.08 1329.06 2015.92 1397.05 2010.25 1470.73 C 2004.59 1547.24 1936.58 1601.08 1862.9 1595.42 C 1786.4 1589.75 1732.56 1521.73 1738.23 1448.06 C 1743.88 1371.56 1811.9 1314.88 1885.57 1323.39 Z M 672.791 1742.77 C 553.78 1742.77 457.438 1646.42 457.438 1527.4 C 457.438 1408.39 553.78 1312.04 672.791 1312.04 C 791.802 1312.04 888.144 1408.39 888.144 1527.4 C 888.144 1646.42 791.802 1742.77 672.791 1742.77 Z" style="fill: rgb(255, 201, 60);"/>
  <path d="M 2840.49 1487.73 L 2897.17 1436.73 C 2877.33 1385.73 2877.33 1385.73 2854.66 1337.56 L 2778.16 1340.38 C 2755.48 1317.71 2741.32 1303.55 2718.65 1280.88 L 2721.48 1204.37 C 2673.31 1184.54 2673.31 1184.54 2622.31 1164.7 L 2571.3 1221.38 C 2537.3 1221.38 2520.3 1221.38 2486.29 1221.38 L 2435.29 1164.7 C 2387.12 1184.54 2387.12 1184.54 2336.11 1204.37 L 2338.95 1280.88 C 2316.28 1303.55 2302.1 1317.71 2279.44 1340.38 L 2202.94 1337.56 C 2188.77 1385.73 2188.77 1385.73 2168.94 1436.73 L 2225.6 1487.73 C 2225.6 1521.73 2225.6 1538.74 2225.6 1572.74 L 2168.94 1623.74 C 2188.77 1671.91 2188.77 1671.91 2208.6 1722.92 L 2285.11 1720.09 C 2290.78 1725.75 2296.44 1731.43 2302.1 1737.09 L 1987.58 2048.79 L 1993.24 2017.62 C 1970.59 2006.29 1970.59 2006.29 1945.08 1992.12 L 1916.75 2017.62 C 1899.74 2014.78 1891.24 2014.78 1874.24 2014.78 L 1851.57 1983.61 C 1826.07 1992.12 1826.07 1992.12 1800.56 2000.62 L 1800.56 2023.28 L 1480.37 1728.6 L 1522.87 1734.26 C 1539.88 1703.09 1539.88 1703.09 1554.05 1674.74 L 1522.87 1640.76 C 1525.7 1620.91 1525.7 1609.57 1528.53 1586.92 L 1565.37 1558.57 C 1554.05 1527.4 1554.05 1527.4 1545.54 1493.41 L 1497.37 1490.58 C 1483.2 1473.57 1477.54 1465.06 1463.37 1450.89 L 1469.02 1402.72 C 1437.86 1385.73 1437.86 1385.73 1409.53 1371.56 L 1375.53 1402.72 C 1355.69 1399.88 1344.35 1399.88 1321.69 1397.05 L 1293.35 1360.21 C 1262.18 1371.56 1262.18 1371.56 1228.18 1380.06 L 1225.35 1428.24 C 1208.34 1442.4 1199.84 1448.06 1185.67 1462.23 L 1137.51 1456.56 C 1120.51 1487.73 1120.51 1487.73 1106.34 1516.07 L 1137.51 1550.07 C 1134.66 1569.9 1134.66 1581.25 1131.83 1603.91 L 1094.99 1632.25 C 1106.34 1663.42 1106.34 1663.42 1114.83 1697.42 L 1163 1700.26 C 1177.17 1717.25 1182.84 1725.75 1197.01 1739.92 L 1191.34 1788.11 C 1222.51 1805.11 1222.51 1805.11 1250.85 1819.26 L 1284.86 1788.11 C 1304.68 1790.93 1316.02 1790.93 1338.69 1793.76 L 1367.03 1830.59 C 1398.19 1819.26 1398.19 1819.26 1432.2 1810.76 L 1435.03 1765.43 L 1763.72 2065.78 L 1732.56 2060.12 C 1721.21 2082.78 1721.21 2082.78 1707.05 2108.3 L 1732.56 2136.63 C 1729.73 2153.62 1729.73 2162.13 1729.73 2179.14 L 1698.55 2201.8 C 1707.05 2227.3 1707.05 2227.3 1715.56 2252.8 L 1752.4 2252.8 C 1763.72 2266.98 1769.4 2272.65 1780.72 2283.97 L 1772.23 2320.81 C 1794.89 2332.15 1794.89 2332.15 1820.4 2346.32 L 1848.74 2320.81 C 1865.73 2323.66 1874.24 2323.66 1891.24 2323.66 L 1913.91 2354.81 C 1939.41 2346.32 1939.41 2346.32 1964.91 2337.81 L 1964.91 2300.99 C 1979.08 2289.65 1984.75 2283.97 1996.08 2272.65 L 2032.91 2278.3 C 2044.26 2255.64 2044.26 2255.64 2058.43 2230.14 L 2032.91 2201.8 C 2035.76 2184.8 2035.76 2176.29 2035.76 2159.31 L 2066.92 2136.63 C 2058.43 2111.12 2058.43 2111.12 2049.92 2085.62 L 2027.25 2085.62 L 2341.78 1771.09 C 2341.78 1771.09 2344.61 1773.92 2344.61 1773.92 L 2341.78 1850.44 C 2389.95 1870.27 2389.95 1870.27 2440.96 1890.11 L 2491.96 1833.44 C 2525.97 1833.44 2542.97 1833.44 2576.97 1833.44 L 2627.97 1890.11 C 2676.15 1870.27 2676.15 1870.27 2727.16 1850.44 L 2724.32 1773.92 C 2746.99 1751.27 2761.15 1737.09 2783.81 1714.42 L 2860.33 1717.25 C 2880.16 1669.08 2880.16 1669.08 2900 1618.08 L 2843.32 1567.07 C 2840.49 1538.74 2840.49 1521.73 2840.49 1487.73 Z M 1318.85 1731.43 C 1242.35 1725.75 1188.51 1657.75 1194.17 1584.08 C 1199.84 1507.56 1267.85 1453.73 1341.52 1459.39 C 1418.02 1465.06 1471.87 1533.08 1466.2 1606.74 C 1460.53 1683.25 1392.53 1739.92 1318.85 1731.43 Z M 2531.62 1745.6 C 2412.62 1745.6 2316.28 1649.25 2316.28 1530.24 C 2316.28 1411.23 2412.62 1314.88 2531.62 1314.88 C 2650.64 1314.88 2746.99 1411.23 2746.99 1530.24 C 2746.99 1649.25 2653.48 1745.6 2531.62 1745.6 Z" style="fill: rgb(255, 201, 60);"/>
</svg>