<?xml version="1.0" encoding="utf-8"?>
<!-- Generator: Adobe Illustrator 27.5.0, SVG Export Plug-In . SVG Version: 6.00 Build 0)  -->
<svg version="1.1" id="LG" xmlns="http://www.w3.org/2000/svg" xmlns:xlink="http://www.w3.org/1999/xlink" x="0px" y="0px"
	 viewBox="0 0 566.93 566.93" style="enable-background:new 0 0 566.93 566.93;" xml:space="preserve">
<style type="text/css">
	.st0{fill:#231F20;}
	.st1{fill:none;stroke:#231F20;stroke-width:2;stroke-miterlimit:10;}
	.st2{fill:none;stroke:#231F20;stroke-width:7;stroke-miterlimit:10;}
</style>
<g id="L">
	<polygon class="st0" points="324.22,503.23 95.31,503.23 95.31,143.11 117.83,143.11 117.83,480.7 324.22,480.7 	"/>
	<polygon class="st0" points="228.78,466.5 131.92,466.5 131.92,138.17 138.35,138.17 138.35,460.06 228.78,460.06 	"/>
	<g>
		<line class="st0" x1="95.23" y1="520.5" x2="321.96" y2="520.5"/>
		<rect x="95.23" y="517.28" class="st0" width="226.72" height="6.43"/>
	</g>
	<g>
		<circle class="st0" cx="116.84" cy="131.91" r="31.78"/>
		<path class="st0" d="M116.84,171.74c-21.96,0-39.83-17.87-39.83-39.83c0-21.96,17.87-39.83,39.83-39.83s39.83,17.87,39.83,39.83
			C156.67,153.87,138.8,171.74,116.84,171.74z M116.84,108.17c-13.09,0-23.74,10.65-23.74,23.74c0,13.09,10.65,23.74,23.74,23.74
			c13.09,0,23.74-10.65,23.74-23.74C140.58,118.82,129.93,108.17,116.84,108.17z"/>
	</g>
	<g>
		<circle class="st0" cx="332.46" cy="491.87" r="31.78"/>
		<path class="st0" d="M332.46,531.7c-21.96,0-39.83-17.87-39.83-39.83c0-21.96,17.87-39.83,39.83-39.83s39.83,17.87,39.83,39.83
			C372.29,513.84,354.42,531.7,332.46,531.7z M332.46,468.13c-13.09,0-23.74,10.65-23.74,23.74c0,13.09,10.65,23.74,23.74,23.74
			c13.09,0,23.74-10.65,23.74-23.74C356.2,478.78,345.55,468.13,332.46,468.13z"/>
	</g>
	<path class="st1" d="M172.11,462.75"/>
	<path class="st1" d="M100.3,521.19"/>
</g>
<g id="G">
	<g>
		<line class="st0" x1="240.13" y1="401.27" x2="240.13" y2="187.49"/>
		<rect x="236.92" y="187.49" class="st0" width="6.43" height="213.79"/>
	</g>
	<rect x="243.34" y="86.99" class="st0" width="223.08" height="6.43"/>
	<rect x="314.08" y="251.07" class="st0" width="132.27" height="6.43"/>
	<path class="st2" d="M199.89,66.99"/>
	<g>
		<line class="st0" x1="211.56" y1="149.7" x2="211.56" y2="377.59"/>
		<rect x="200.3" y="149.7" class="st0" width="22.52" height="227.89"/>
	</g>
	<g>
		<circle class="st0" cx="317.54" cy="238.43" r="31.78"/>
		<path class="st0" d="M317.54,275.04c-20.19,0-36.61-16.42-36.61-36.61c0-20.19,16.42-36.61,36.61-36.61
			c20.19,0,36.61,16.42,36.61,36.61C354.15,258.62,337.73,275.04,317.54,275.04z M317.54,211.48c-14.86,0-26.96,12.09-26.96,26.96
			s12.09,26.96,26.96,26.96s26.96-12.09,26.96-26.96S332.41,211.48,317.54,211.48z"/>
	</g>
	<g>
		<circle class="st0" cx="453.3" cy="71.84" r="31.78"/>
		<path class="st0" d="M453.31,108.45c-20.19,0-36.61-16.42-36.61-36.61s16.42-36.61,36.61-36.61c20.19,0,36.61,16.42,36.61,36.61
			S473.49,108.45,453.31,108.45z M453.31,44.88c-14.86,0-26.96,12.09-26.96,26.96s12.09,26.96,26.96,26.96s26.96-12.09,26.96-26.96
			S468.17,44.88,453.31,44.88z"/>
	</g>
	<g>
		<path class="st0" d="M190.05,376.9c0-17.55,14.23-31.78,31.78-31.78s31.78,14.23,31.78,31.78c0,17.55-14.23,31.78-31.78,31.78
			S190.05,394.45,190.05,376.9"/>
		<path class="st0" d="M221.83,413.51c-20.19,0-36.61-16.42-36.61-36.61c0-20.19,16.42-36.61,36.61-36.61s36.61,16.42,36.61,36.61
			C258.44,397.08,242.02,413.51,221.83,413.51z M221.83,349.94c-14.86,0-26.96,12.09-26.96,26.96c0,14.86,12.09,26.96,26.96,26.96
			s26.96-12.09,26.96-26.96C248.79,362.03,236.7,349.94,221.83,349.94z"/>
	</g>
	<rect x="209.08" y="368.23" class="st0" width="276.7" height="22.52"/>
	<rect x="200.31" y="50.33" class="st0" width="276.7" height="22.52"/>
	<rect x="308.02" y="214.45" class="st0" width="178.08" height="22.52"/>
	<rect x="463.53" y="216.93" class="st0" width="22.52" height="173.73"/>
</g>
</svg>
