<?xml version="1.0" encoding="UTF-8" standalone="no"?>
<svg
   xmlns:dc="http://purl.org/dc/elements/1.1/"
   xmlns:cc="http://creativecommons.org/ns#"
   xmlns:rdf="http://www.w3.org/1999/02/22-rdf-syntax-ns#"
   xmlns:svg="http://www.w3.org/2000/svg"
   xmlns="http://www.w3.org/2000/svg"
   width="92.107849mm"
   height="29.188669mm"
   viewBox="0 0 92.10785 29.188669"
   version="1.1"
   id="svg8">
  <defs
     id="defs2">
    <clipPath
       clipPathUnits="userSpaceOnUse"
       id="clipPath851">
      <path
         d="M 0,0 H 595 V 842 H 0 Z"
         id="path849" />
    </clipPath>
    <clipPath
       clipPathUnits="userSpaceOnUse"
       id="clipPath861">
      <path
         d="M 0,2 H 5950 V 8420 H 0 Z"
         id="path859" />
    </clipPath>
    <clipPath
       clipPathUnits="userSpaceOnUse"
       id="clipPath871">
      <path
         d="M 2940.95,2 H 5598.42 V 495.23 H 2940.95 Z"
         id="path869" />
    </clipPath>
    <clipPath
       clipPathUnits="userSpaceOnUse"
       id="clipPath929">
      <path
         d="M 0,2 H 5950 V 8420 H 0 Z"
         id="path927" />
    </clipPath>
    <clipPath
       clipPathUnits="userSpaceOnUse"
       id="clipPath939">
      <path
         d="m 5575,8067 h 24 v 353 h -24 z"
         id="path937" />
    </clipPath>
    <clipPath
       clipPathUnits="userSpaceOnUse"
       id="clipPath947">
      <path
         d="M 0,2 H 2933.86 V 495.23 H 0 Z"
         id="path945" />
    </clipPath>
    <clipPath
       clipPathUnits="userSpaceOnUse"
       id="clipPath1001">
      <path
         d="M 0,2 H 5950 V 8420 H 0 Z"
         id="path999" />
    </clipPath>
    <clipPath
       clipPathUnits="userSpaceOnUse"
       id="clipPath1013">
      <path
         d="m 744.09,6004.49 h 2608.98 v 991.996 H 744.09 Z"
         id="path1011" />
    </clipPath>
    <clipPath
       clipPathUnits="userSpaceOnUse"
       id="clipPath1027">
      <path
         d="m 744.352,6195.39 h 2608.73 v 801.09 H 744.352 Z"
         id="path1025" />
    </clipPath>
    <clipPath
       clipPathUnits="userSpaceOnUse"
       id="clipPath1039">
      <path
         d="M 0,2 H 5950 V 8420 H 0 Z"
         id="path1037" />
    </clipPath>
    <clipPath
       clipPathUnits="userSpaceOnUse"
       id="clipPath1059">
      <path
         d="M 0,1724 H 5950 V 4417 H 0 Z"
         id="path1057" />
    </clipPath>
    <clipPath
       clipPathUnits="userSpaceOnUse"
       id="clipPath1071">
      <path
         d="M 0,2 H 5950 V 8420 H 0 Z"
         id="path1069" />
    </clipPath>
  </defs>
  <metadata
     id="metadata5">
    <rdf:RDF>
      <cc:Work
         rdf:about="">
        <dc:format>image/svg+xml</dc:format>
        <dc:type
           rdf:resource="http://purl.org/dc/dcmitype/StillImage" />
        <dc:title></dc:title>
      </cc:Work>
    </rdf:RDF>
  </metadata>
  <g
     id="layer1"
     transform="translate(-14.801739,-39.829476)">
    <g
       id="g933"
       transform="matrix(0.03527778,0,0,-0.03527778,-10.457347,287.64997)">
      <g
         id="g935"
         clip-path="url(#clipPath939)" />
    </g>
    <g
       id="g1739">
      <g
         id="g995"
         transform="matrix(0.03527778,0,0,-0.03527778,-10.457347,287.64997)">
        <g
           id="g997"
           clip-path="url(#clipPath1001)">
          <path
             d="m 1495.35,6981.79 -168.63,0.05 -116.05,-268.19 -28.09,-176.36 70.23,0.03 242.54,444.47"
             style="fill:#fbba00;fill-opacity:1;fill-rule:nonzero;stroke:none"
             id="path1003" />
          <path
             d="m 1759.11,6635.14 h 138.52 l -15.5,-97.85 h -254.07 l 70.42,444.46 h 115.54 l -54.91,-346.61"
             style="fill:#002c64;fill-opacity:1;fill-rule:nonzero;stroke:none"
             id="path1005" />
        </g>
      </g>
      <g
         id="g1007"
         transform="matrix(0.03527778,0,0,-0.03527778,-10.457347,287.64997)">
        <g
           id="g1009"
           clip-path="url(#clipPath1013)">
          <path
             d="m 2266.71,6832.6 c -18.54,31.85 -54.13,48.95 -93.63,48.95 -70.74,0 -127.08,-54.25 -138.01,-123.21 -11.11,-70.15 29.18,-120.85 101.12,-120.85 37.72,0 78.34,18.26 107.09,47.16 l -21.95,-138.53 c -40.19,-11.78 -69.3,-20.63 -105.25,-20.63 -61.89,0 -117.12,23.56 -156.46,65.44 -41.93,44.21 -55.17,101.98 -44.71,167.99 9.61,60.72 41.86,119.08 91.21,162.71 50.72,44.8 118.09,71.91 180.58,71.91 37.14,0 70.01,-8.25 101.96,-22.41 l -21.95,-138.53"
             style="fill:#002c64;fill-opacity:1;fill-rule:nonzero;stroke:none"
             id="path1015" />
          <path
             d="m 2411.32,6767.18 c -12.14,-76.64 35.57,-132.63 104.54,-132.63 68.96,0 134.43,55.99 146.59,132.63 9.68,61.29 -38.02,117.31 -107,117.31 -68.96,0 -134.41,-56.02 -144.13,-117.31 m 371.45,0.59 c -22.79,-143.83 -142,-245.23 -284.64,-245.23 -142.68,0 -229.77,101.4 -206.97,245.23 21.29,134.4 154.13,228.72 282.04,228.72 127.93,0 230.87,-94.32 209.57,-228.72"
             style="fill:#002c64;fill-opacity:1;fill-rule:nonzero;stroke:none"
             id="path1017" />
          <path
             d="m 2854.72,6981.75 h 115.53 l 169.75,-271.77 43.07,271.77 h 115.52 l -70.41,-444.46 h -115.55 l -169.15,272.32 -43.64,-272.32 H 2784.3 l 70.42,444.46"
             style="fill:#002c64;fill-opacity:1;fill-rule:nonzero;stroke:none"
             id="path1019" />
        </g>
      </g>
      <g
         id="g1021"
         transform="matrix(0.03527778,0,0,-0.03527778,-10.457347,287.64997)">
        <g
           id="g1023"
           clip-path="url(#clipPath1027)">
          <path
             d="m 1510.22,6963.79 -83.32,-152.69 18.83,-107.68 h -77.59 l -48.4,-88.68 h 143.28 l 16.69,-77.45 h 123.58 l -93.07,426.5"
             style="fill:#002c64;fill-opacity:1;fill-rule:nonzero;stroke:none"
             id="path1029" />
          <path
             d="M 1096.88,6981.79 1069.7,6810.23 H 902.875 l 27.18,171.56 H 814.516 L 744.094,6537.3 h 115.539 l 28.851,182.16 h 166.826 l -28.86,-182.16 h 115.52 l 0.03,0.06 69.66,444.43 h -114.78"
             style="fill:#002c64;fill-opacity:1;fill-rule:nonzero;stroke:none"
             id="path1031" />
        </g>
      </g>
      <g
         id="g1041"
         transform="matrix(0.3527778,0,0,-0.3527778,-10.457347,287.64997)">
        <g
           aria-label="a product of MVTec"
           transform="matrix(1,0,0,-1,156.073,627.835)"
           id="text1045"
           style="font-variant:normal;font-weight:900;font-size:20.0635px;font-family:'Futura LT';-inkscape-font-specification:FuturaLT-Heavy;writing-mode:lr-tb;fill:#002c64;fill-opacity:1;fill-rule:nonzero;stroke:none">
          <path
             d="M 10.312639,-9.8511782 V 0 H 7.5438758 v -0.90285748 h -0.040127 q -0.9429845,1.22387347 -2.6684454,1.22387347 -2.0665405,0 -3.3104774,-1.58501649 -1.22387351,-1.5850164 -1.22387351,-3.7117474 0,-2.0866039 1.22387351,-3.6314934 1.2439369,-1.5649527 3.2703504,-1.5649527 1.6853339,0 2.7486994,1.2439367 v -0.9229209 z m -6.5206376,6.8416533 q 0.6620955,0.842667 1.685334,0.842667 1.0232384,0 1.6853339,-0.842667 0.6620955,-0.8627305 0.6620955,-1.926096 0,-1.0633654 -0.6620955,-1.9060324 -0.6620955,-0.842667 -1.6853339,-0.842667 -1.0232385,0 -1.685334,0.842667 -0.642032,0.842667 -0.642032,1.9060324 0,1.0633655 0.642032,1.926096 z"
             id="path1741" />
          <path
             d="m 20.946295,-9.8511782 v 0.9028574 q 1.023238,-1.2238732 2.728635,-1.2238732 2.00635,0 3.250287,1.5850162 1.243937,1.564953 1.243937,3.6114299 0,2.1467945 -1.243937,3.7318109 -1.223873,1.56495299 -3.310477,1.56495299 -0.782476,0 -1.504762,-0.32101599 -0.722286,-0.34107949 -1.123556,-0.92292097 h -0.04013 V 5.2566369 h -2.80889 V -9.8511782 Z m 0.361143,6.8416533 q 0.662095,0.842667 1.685333,0.842667 1.023239,0 1.665271,-0.842667 0.662095,-0.8627305 0.662095,-1.926096 0,-1.0633654 -0.662095,-1.9060324 -0.642032,-0.842667 -1.665271,-0.842667 -1.023238,0 -1.685333,0.842667 -0.642032,0.842667 -0.642032,1.9060324 0,1.0633655 0.642032,1.926096 z"
             id="path1743" />
          <path
             d="m 32.282171,-9.8511782 v 1.0232384 h 0.04013 q 0.882794,-1.3442542 2.447747,-1.3442542 0.541714,0 1.163683,0.2407618 l -0.34108,2.6082549 q -0.501587,-0.361143 -1.163683,-0.361143 -0.561778,0 -0.983111,0.200635 -0.40127,0.200635 -0.621968,0.5015875 -0.220699,0.3009525 -0.361143,0.762413 -0.120381,0.4614605 -0.160508,0.8627304 -0.02006,0.40127 -0.02006,0.922921 V 0 h -2.80889 v -9.8511782 z"
             id="path1745" />
          <path
             d="m 37.599,-8.6874953 q 1.444572,-1.4846987 3.731811,-1.4846987 2.287239,0 3.731811,1.4846987 1.444572,1.4646355 1.444572,3.7719379 0,2.3073025 -1.444572,3.7719379 -1.424509,1.46463549 -3.731811,1.46463549 -2.307302,0 -3.751874,-1.46463549 -1.424509,-1.4646354 -1.424509,-3.7719379 0,-2.3073024 1.444572,-3.7719379 z m 5.417145,1.845842 q -0.642032,-0.842667 -1.685334,-0.842667 -1.043302,0 -1.685334,0.842667 -0.642032,0.842667 -0.642032,1.9260959 0,1.0633655 0.642032,1.9060325 0.662096,0.842667 1.685334,0.842667 1.023238,0 1.66527,-0.842667 0.662096,-0.842667 0.662096,-1.9060325 0,-1.0834289 -0.642032,-1.9260959 z"
             id="path1747" />
          <path
             d="m 54.352021,0 v -0.92292097 h -0.04013 Q 53.890561,-0.34107949 53.168275,0 q -0.722286,0.32101599 -1.504763,0.32101599 -2.06654,0 -3.310477,-1.58501649 -1.223874,-1.5850164 -1.223874,-3.7117474 0,-2.0866039 1.223874,-3.6314934 1.243937,-1.5649527 3.27035,-1.5649527 0.782477,0 1.504763,0.3210158 0.722286,0.321016 1.183746,0.9028574 h 0.04013 v -8.0655272 h 2.80889 V 0 Z M 50.62021,-3.0095249 q 0.662096,0.842667 1.685334,0.842667 1.023239,0 1.665271,-0.842667 0.662095,-0.8627305 0.662095,-1.926096 0,-1.0633654 -0.662095,-1.9060324 -0.642032,-0.842667 -1.665271,-0.842667 -1.023238,0 -1.685334,0.842667 -0.642032,0.842667 -0.642032,1.9060324 0,1.0633655 0.642032,1.926096 z"
             id="path1749" />
          <path
             d="m 59.10707,-9.8511782 h 2.80889 v 5.3368908 q 0,2.4678105 1.60508,2.4678105 1.60508,0 1.60508,-2.4678105 v -5.3368908 h 2.80889 v 5.7983513 q 0,4.37384289 -4.41397,4.37384289 -4.41397,0 -4.41397,-4.37384289 z"
             id="path1751" />
          <path
             d="m 76.60244,-9.5502257 v 2.7085724 q -0.963048,-0.963048 -2.066541,-0.963048 -1.123556,0 -1.805715,0.882794 -0.682159,0.882794 -0.682159,2.0464769 0,1.20381 0.702223,2.0264135 0.722286,0.80254 1.885969,0.80254 1.123556,0 1.966223,-0.9429845 v 2.70857241 q -1.083429,0.60190498 -2.427684,0.60190498 -2.146794,0 -3.571303,-1.52482599 -1.404444,-1.5248259 -1.404444,-3.6916839 0,-2.2270484 1.444571,-3.7518744 1.464636,-1.5248257 3.671621,-1.5248257 1.284064,0 2.287239,0.6219683 z"
             id="path1753" />
          <path
             d="M 81.49794,-7.4836853 V 0 h -2.80889 v -7.4836853 h -0.963048 v -2.3674929 h 0.963048 v -3.3305408 h 2.80889 v 3.3305408 h 1.725461 v 2.3674929 z"
             id="path1755" />
          <path
             d="m 90.406129,-8.6874953 q 1.444572,-1.4846987 3.731811,-1.4846987 2.287239,0 3.731811,1.4846987 1.444572,1.4646355 1.444572,3.7719379 0,2.3073025 -1.444572,3.7719379 -1.424509,1.46463549 -3.731811,1.46463549 -2.307303,0 -3.751874,-1.46463549 -1.424509,-1.4646354 -1.424509,-3.7719379 0,-2.3073024 1.444572,-3.7719379 z m 5.417145,1.845842 q -0.642032,-0.842667 -1.685334,-0.842667 -1.043302,0 -1.685334,0.842667 -0.642032,0.842667 -0.642032,1.9260959 0,1.0633655 0.642032,1.9060325 0.662095,0.842667 1.685334,0.842667 1.023238,0 1.66527,-0.842667 0.662096,-0.842667 0.662096,-1.9060325 0,-1.0834289 -0.642032,-1.9260959 z"
             id="path1757" />
          <path
             d="M 103.54772,-7.4836853 V 0 h -2.80889 v -7.4836853 h -0.942984 v -2.3674929 h 0.942984 v -2.8891438 q 0,-1.986287 0.90286,-3.250287 0.90286,-1.264001 2.80889,-1.264001 0.72228,0 1.34425,0.321016 v 2.507938 q -0.68216,-0.34108 -1.14362,-0.34108 -0.20063,0 -0.36114,0.06019 -0.16051,0.04013 -0.28089,0.160508 -0.12038,0.120381 -0.20063,0.240762 -0.0803,0.100317 -0.14045,0.300952 -0.0401,0.180572 -0.0802,0.321016 -0.0201,0.120381 -0.0401,0.361143 0,0.240762 0,0.361143 0,0.100318 0,0.34108 0,0.220698 0,0.280889 v 2.4878738 h 2.24711 v 2.3674929 z"
             id="path1759" />
          <path
             d="m 125.09592,0 -1.20381,-9.3897177 h -0.0401 l -3.43085,9.59035269 h -1.02324 l -3.31048,-9.59035269 h -0.0401 L 114.70303,0 h -2.9694 l 2.54806,-15.529149 h 2.08661 l 3.73181,9.9715597 3.5713,-9.9715597 h 2.12673 L 128.06532,0 Z"
             id="path1761" />
          <path
             d="m 131.17517,-15.127879 3.63149,10.1922581 h 0.0401 l 3.37067,-10.1922581 h 3.17003 l -5.8786,15.52914899 h -1.72547 L 128.00514,-15.127879 Z"
             id="path1763" />
          <path
             d="M 147.10558,-12.559751 V 0 h -2.94933 v -12.559751 h -3.04965 v -2.568128 h 9.04864 v 2.568128 z"
             id="path1765" />
          <path
             d="m 157.89971,-4.4741604 h -6.48051 q 0,1.083429 0.46146,1.8659055 0.48152,0.7824764 1.4847,0.7824764 1.22387,0 1.88597,-1.3442544 l 2.58819,0.4213335 q -0.50159,1.4646354 -1.7054,2.26717541 -1.20381,0.80253998 -2.76876,0.80253998 -2.24711,0 -3.59137,-1.42450849 -1.32419,-1.4445719 -1.32419,-3.7318109 0,-2.3474294 1.22388,-3.8321284 1.24393,-1.5047622 3.55123,-1.5047622 2.30731,0 3.49105,1.5047622 1.18375,1.484699 1.18375,3.8521919 z m -6.40026,-1.7455244 h 3.75188 q -0.12038,-0.8226035 -0.62197,-1.404445 -0.48152,-0.5818415 -1.24394,-0.5818415 -0.80254,0 -1.28406,0.5818415 -0.48153,0.561778 -0.60191,1.404445 z"
             id="path1767" />
          <path
             d="m 165.90504,-9.5502257 v 2.7085724 q -0.96305,-0.963048 -2.06654,-0.963048 -1.12356,0 -1.80572,0.882794 -0.68216,0.882794 -0.68216,2.0464769 0,1.20381 0.70222,2.0264135 0.72229,0.80254 1.88597,0.80254 1.12356,0 1.96623,-0.9429845 v 2.70857241 q -1.08343,0.60190498 -2.42769,0.60190498 -2.14679,0 -3.5713,-1.52482599 -1.40444,-1.5248259 -1.40444,-3.6916839 0,-2.2270484 1.44457,-3.7518744 1.46463,-1.5248257 3.67162,-1.5248257 1.28406,0 2.28724,0.6219683 z"
             id="path1769" />
        </g>
      </g>
    </g>
  </g>
</svg>
